{"title":"Footloose 1984 DVD9rip English Klam","uid":5886566,"size":1685358670,"categoryP":"video","categoryS":"movies","magnet":"?xt=urn:btih:76893a2b7fcdd2e6a8935cbaff7821d30de8eb13&amp;dn=Footloose+1984+DVD9rip+English+Klam&amp;tr=udp%3A%2F%2Ftracker.openbittorrent.com%3A80&amp;tr=udp%3A%2F%2Fopen.demonii.com%3A1337&amp;tr=udp%3A%2F%2Ftracker.coppersurfer.tk%3A6969&amp;tr=udp%3A%2F%2Fexodus.desync.com%3A6969","seeders":1,"leechers":0,"uploader":"Klambake","files":-1,"time":1287073983,"description":"\n\nWith: Kevin Bacon, Lori Singer en John Lithgow\n\nClassic tale of teen rebellion and repression features a delightful combination of dance choreography and realistic and touching performances. When teenager Ren and his family move from big-city Chicago to a small town in the West, he's in for a real case of culture shock. Though he tries hard to fit in, the streetwise Ren can't quite believe he's living in a place where rock music and dancing are illegal. There is one small pleasure, however: Ariel, a troubled but lovely blonde with a jealous boyfriend. and a Bible-thumping minister, who is responsible for keeping the town dance-free. Ren and his classmates want to do away with this ordinance, especially since the senior prom is around the corner, but only Ren has the courage to initiate a battle to abolish the outmoded ban and revitalize the spirit of the repressed townspeople. Fast-paced drama is filled with such now-famous hit songs as the title track and &quot;Let's Hear It for the Boy.&quot;\n\nGeneral:\n\nComplete name                    : Klambake\\Footloose\\FootLoose.avi\nFormat                           : AVI\nFormat/Info                      : Audio Video Interleave\nFile size                        : 1.57 GiB\nDuration                         : 1h 42mn\nOverall bit rate                 : 2 185 Kbps\n\nVideo:\n\nFormat                           : MPEG-4 Visual\nFormat profile                   : Simple@L3\nFormat settings, BVOP            : No\nFormat settings, QPel            : No\nFormat settings, GMC             : No warppoints\nFormat settings, Matrix          : Default (H.263)\nCodec ID                         : XVID\nCodec ID/Hint                    : XviD\nDuration                         : 1h 42mn\nBit rate                         : 2 012 Kbps\nWidth                            : 720 pixels\nHeight                           : 576 pixels\nDisplay aspect ratio             : 5:4\nFrame rate                       : 25.000 fps\nStandard                         : PAL\nColor space                      : YUV\nChroma subsampling               : 4:2:0\nBit depth                        : 8 bits\nScan type                        : Progressive\nBits/(Pixel*Frame)               : 0.194\nStream size                      : 1.44 GiB (92%)\nWriting library                  : XviD 1.1.2 (UTC 2006-11-01)\n\nAudio:\n\nFormat                           : MPEG Audio\nFormat version                   : Version 1\nFormat profile                   : Layer 3\nMode                             : Joint stereo\nMode extension                   : MS Stereo\nCodec ID                         : 55\nCodec ID/Hint                    : MP3\nDuration                         : 1h 42mn\nBit rate mode                    : Constant\nBit rate                         : 160 Kbps\nChannel(s)                       : 2 channels\nSampling rate                    : 48.0 KHz\nStream size                      : 118 MiB (7%)\nAlignment                        : Split accross interleaves\nInterleave, duration             : 24 ms (0.60 video frame)\nInterleave, preload duration     : 68 ms\nWriting library                  : LAME3.98","torrent":{"xt":"urn:btih:76893a2b7fcdd2e6a8935cbaff7821d30de8eb13","amp;dn":"Footloose+1984+DVD9rip+English+Klam","amp;tr":["udp%3A%2F%2Ftracker.openbittorrent.com%3A80","udp%3A%2F%2Fopen.demonii.com%3A1337","udp%3A%2F%2Ftracker.coppersurfer.tk%3A6969","udp%3A%2F%2Fexodus.desync.com%3A6969"],"infoHash":"76893a2b7fcdd2e6a8935cbaff7821d30de8eb13","infoHashBuffer":{"type":"Buffer","data":[118,137,58,43,127,205,210,230,168,147,92,186,255,120,33,211,13,232,235,19]},"announce":[],"urlList":[]}}